<svg width="50" height="50" viewBox="0 0 38 38" fill="none" xmlns="http://www.w3.org/2000/svg">
<path d="M27.4548 8.64484C27.0791 8.64484 26.7117 8.75627 26.3993 8.96505C26.0868 9.17382 25.8433 9.47056 25.6995 9.81774C25.5557 10.1649 25.518 10.5469 25.5913 10.9155C25.6647 11.2841 25.8456 11.6226 26.1113 11.8883C26.3771 12.1541 26.7156 12.335 27.0842 12.4083C27.4527 12.4816 27.8348 12.444 28.1819 12.3002C28.5291 12.1564 28.8259 11.9129 29.0346 11.6004C29.2434 11.288 29.3548 10.9206 29.3548 10.5448C29.3548 10.0409 29.1547 9.55765 28.7983 9.20134C28.442 8.84502 27.9587 8.64484 27.4548 8.64484ZM34.7382 12.4765C34.7074 11.1628 34.4613 9.86306 34.0098 8.629C33.6072 7.57313 32.9806 6.61703 32.1732 5.8265C31.3891 5.01493 30.4308 4.39228 29.3707 4.00567C28.1399 3.54043 26.8387 3.28875 25.5232 3.2615C23.8448 3.1665 23.3065 3.1665 18.9998 3.1665C14.6932 3.1665 14.1548 3.1665 12.4765 3.2615C11.161 3.28875 9.8598 3.54043 8.629 4.00567C7.57083 4.3962 6.61332 5.01831 5.8265 5.8265C5.01493 6.61054 4.39228 7.56887 4.00567 8.629C3.54043 9.8598 3.28875 11.161 3.2615 12.4765C3.1665 14.1548 3.1665 14.6932 3.1665 18.9998C3.1665 23.3065 3.1665 23.8448 3.2615 25.5232C3.28875 26.8387 3.54043 28.1399 4.00567 29.3707C4.39228 30.4308 5.01493 31.3891 5.8265 32.1732C6.61332 32.9814 7.57083 33.6035 8.629 33.994C9.8598 34.4593 11.161 34.7109 12.4765 34.7382C14.1548 34.8332 14.6932 34.8332 18.9998 34.8332C23.3065 34.8332 23.8448 34.8332 25.5232 34.7382C26.8387 34.7109 28.1399 34.4593 29.3707 33.994C30.4308 33.6074 31.3891 32.9848 32.1732 32.1732C32.9842 31.3856 33.6114 30.4286 34.0098 29.3707C34.4613 28.1366 34.7074 26.8369 34.7382 25.5232C34.7382 23.8448 34.8332 23.3065 34.8332 18.9998C34.8332 14.6932 34.8332 14.1548 34.7382 12.4765ZM31.8882 25.3332C31.8766 26.3382 31.6946 27.334 31.3498 28.2782C31.097 28.9672 30.691 29.5898 30.1623 30.099C29.6488 30.6223 29.0274 31.0275 28.3415 31.2865C27.3974 31.6313 26.4016 31.8133 25.3965 31.8248C23.8132 31.904 23.2273 31.9198 19.0632 31.9198C14.899 31.9198 14.3132 31.9198 12.7298 31.8248C11.6862 31.8444 10.6471 31.6837 9.65817 31.3498C9.00233 31.0776 8.40948 30.6734 7.9165 30.1623C7.39098 29.6537 6.99001 29.0306 6.74484 28.3415C6.35828 27.3838 6.14387 26.3654 6.1115 25.3332C6.1115 23.7498 6.0165 23.164 6.0165 18.9998C6.0165 14.8357 6.0165 14.2498 6.1115 12.6665C6.1186 11.639 6.30617 10.6208 6.66567 9.65817C6.94441 8.98986 7.37226 8.39413 7.9165 7.9165C8.39754 7.3721 8.99204 6.93974 9.65817 6.64984C10.6233 6.30157 11.6405 6.11955 12.6665 6.1115C14.2498 6.1115 14.8357 6.0165 18.9998 6.0165C23.164 6.0165 23.7498 6.0165 25.3332 6.1115C26.3382 6.12303 27.334 6.30506 28.2782 6.64984C28.9977 6.91687 29.6435 7.35101 30.1623 7.9165C30.6812 8.40287 31.0866 8.9975 31.3498 9.65817C31.7017 10.6223 31.8839 11.6402 31.8882 12.6665C31.9673 14.2498 31.9832 14.8357 31.9832 18.9998C31.9832 23.164 31.9673 23.7498 31.8882 25.3332ZM18.9998 10.8773C17.394 10.8805 15.8252 11.3595 14.4915 12.2539C13.1579 13.1483 12.1193 14.418 11.5069 15.9024C10.8946 17.3869 10.736 19.0196 11.0512 20.5941C11.3664 22.1687 12.1412 23.6145 13.2778 24.7489C14.4144 25.8833 15.8617 26.6553 17.4369 26.9674C19.012 27.2795 20.6444 27.1178 22.1277 26.5025C23.6109 25.8873 24.8786 24.8462 25.7704 23.5108C26.6622 22.1754 27.1382 20.6056 27.1382 18.9998C27.1403 17.9313 26.9311 16.8728 26.5226 15.8854C26.1142 14.8979 25.5146 14.001 24.7582 13.2461C24.0019 12.4912 23.1038 11.8933 22.1155 11.4868C21.1273 11.0803 20.0684 10.8732 18.9998 10.8773ZM18.9998 24.2723C17.957 24.2723 16.9377 23.9631 16.0706 23.3838C15.2035 22.8044 14.5277 21.981 14.1287 21.0175C13.7296 20.0541 13.6252 18.994 13.8286 17.9712C14.0321 16.9485 14.5342 16.009 15.2716 15.2716C16.009 14.5342 16.9485 14.0321 17.9712 13.8286C18.994 13.6252 20.0541 13.7296 21.0175 14.1287C21.981 14.5277 22.8044 15.2035 23.3838 16.0706C23.9631 16.9377 24.2723 17.957 24.2723 18.9998C24.2723 19.6922 24.136 20.3778 23.871 21.0175C23.606 21.6572 23.2177 22.2385 22.7281 22.7281C22.2385 23.2177 21.6572 23.606 21.0175 23.871C20.3778 24.136 19.6922 24.2723 18.9998 24.2723Z" fill="#F24E1E"/>
</svg>
