<svg width="50" height="50" viewBox="0 0 38 38" fill="none" xmlns="http://www.w3.org/2000/svg">
<path d="M35.5618 9.50016C34.3426 10.0543 33.0285 10.4185 31.6668 10.5927C33.0601 9.7535 34.1368 8.4235 34.6435 6.82433C33.3293 7.616 31.8726 8.17016 30.3368 8.48683C29.086 7.12516 27.3285 6.3335 25.3335 6.3335C21.6126 6.3335 18.5726 9.3735 18.5726 13.126C18.5726 13.6643 18.636 14.1868 18.7468 14.6777C13.1101 14.3927 8.09098 11.6852 4.75014 7.58433C4.16431 8.58183 3.83181 9.7535 3.83181 10.9885C3.83181 13.3477 5.01931 15.4377 6.85598 16.6252C5.73181 16.6252 4.68681 16.3085 3.76848 15.8335V15.881C3.76848 19.1743 6.11181 21.9293 9.21514 22.5468C8.21879 22.8195 7.17279 22.8574 6.15931 22.6577C6.58935 24.0074 7.43158 25.1885 8.56759 26.0348C9.7036 26.8811 11.0763 27.3502 12.4926 27.376C10.0917 29.2767 7.11564 30.3041 4.05348 30.2893C3.51514 30.2893 2.97681 30.2577 2.43848 30.1943C5.44681 32.126 9.02514 33.2502 12.8568 33.2502C25.3335 33.2502 32.1893 22.8952 32.1893 13.9177C32.1893 13.6168 32.1893 13.3318 32.1735 13.031C33.5035 12.081 34.6435 10.8777 35.5618 9.50016Z" fill="#17A1FA"/>
</svg>
