<svg width="50" height="50" viewBox="0 0 46 35" fill="none" xmlns="http://www.w3.org/2000/svg">
<g clip-path="url(#clip0_982_977)" filter="url(#filter0_d_982_977)">
<path d="M41.1608 4.16738C40.9428 3.3619 40.5177 2.62756 39.9276 2.0375C39.3376 1.44743 38.6033 1.02223 37.7978 0.804235C34.8489 0 22.9808 0 22.9808 0C22.9808 0 11.112 0.0243437 8.16311 0.828578C7.35761 1.04659 6.62328 1.47181 6.03324 2.0619C5.44321 2.65199 5.01805 3.38636 4.80011 4.19188C3.90815 9.43142 3.56214 17.4153 4.8246 22.4452C5.04256 23.2507 5.46773 23.9851 6.05777 24.5751C6.64781 25.1652 7.38212 25.5904 8.1876 25.8084C11.1365 26.6126 23.0049 26.6126 23.0049 26.6126C23.0049 26.6126 34.8733 26.6126 37.822 25.8084C38.6275 25.5904 39.3619 25.1652 39.9519 24.5752C40.542 23.9851 40.9672 23.2507 41.1851 22.4452C42.1259 17.1983 42.4158 9.21945 41.1608 4.16753V4.16738Z" fill="#FF0000"/>
<path d="M19.2031 19.0089L29.0488 13.3062L19.2033 7.60352L19.2031 19.0089Z" fill="white"/>
</g>
<defs>
<filter id="filter0_d_982_977" x="0" y="0" width="46" height="34.7188" filterUnits="userSpaceOnUse" color-interpolation-filters="sRGB">
<feFlood flood-opacity="0" result="BackgroundImageFix"/>
<feColorMatrix in="SourceAlpha" type="matrix" values="0 0 0 0 0 0 0 0 0 0 0 0 0 0 0 0 0 0 127 0" result="hardAlpha"/>
<feOffset dy="4"/>
<feGaussianBlur stdDeviation="2"/>
<feComposite in2="hardAlpha" operator="out"/>
<feColorMatrix type="matrix" values="0 0 0 0 0 0 0 0 0 0 0 0 0 0 0 0 0 0 0.25 0"/>
<feBlend mode="normal" in2="BackgroundImageFix" result="effect1_dropShadow_982_977"/>
<feBlend mode="normal" in="SourceGraphic" in2="effect1_dropShadow_982_977" result="shape"/>
</filter>
<clipPath id="clip0_982_977">
<rect width="38" height="26.7188" fill="white" transform="translate(4)"/>
</clipPath>
</defs>
</svg>
